<svg role="img" viewBox="0 0 24 24" fill="currentColor" xmlns="http://www.w3.org/2000/svg">
  <title>GitHub</title>
  <path d="M12 0C5.37 0 0 5.37 0 12c0 5.3 3.438 9.8 8.205 11.385.6.113.82-.263.82-.583 0-.288-.012-1.244-.017-2.444-3.338.724-4.042-1.61-4.042-1.61C4.422 17.07 3.633 16.7 3.633 16.7c-1.086-.743.083-.728.083-.728 1.205.084 1.84 1.238 1.84 1.238 1.07 1.835 2.807 1.305 3.492.997.108-.775.42-1.305.763-1.605-2.665-.3-5.466-1.335-5.466-5.933 0-1.31.47-2.38 1.236-3.22-.124-.303-.535-1.523.117-3.176 0 0 1.008-.322 3.3 1.23a11.54 11.54 0 013.003-.403c1.02.005 2.045.137 3.003.403 2.29-1.552 3.297-1.23 3.297-1.23.654 1.653.243 2.873.12 3.176.77.84 1.234 1.91 1.234 3.22 0 4.61-2.807 5.628-5.48 5.922.43.37.81 1.103.81 2.222 0 1.606-.015 2.9-.015 3.293 0 .322.216.698.825.58C20.565 21.796 24 17.298 24 12c0-6.63-5.373-12-12-12z"/>
</svg>
