<svg role="img" viewBox="0 0 24 24" fill="currentColor" xmlns="http://www.w3.org/2000/svg">
  <title>Instagram</title>
  <path d="M12 2.163c3.204 0 3.584.012 4.85.07 1.366.062 2.633.336 3.608 1.31.974.975 1.248 2.243 1.31 3.608.058 1.266.07 1.645.07 4.85s-.012 3.584-.07 4.85c-.062 1.366-.336 2.633-1.31 3.608-.975.974-2.243 1.248-3.608 1.31-1.266.058-1.645.07-4.85.07s-3.584-.012-4.85-.07c-1.366-.062-2.633-.336-3.608-1.31-.974-.975-1.248-2.243-1.31-3.608C2.175 15.584 2.163 15.204 2.163 12s.012-3.584.07-4.85c.062-1.366.336-2.633 1.31-3.608.975-.974 2.243-1.248 3.608-1.31C8.416 2.175 8.796 2.163 12 2.163zm0-2.163C8.736 0 8.332.014 7.052.072 5.771.131 4.603.407 3.6 1.41 2.598 2.413 2.322 3.581 2.263 4.861.014 8.332 0 8.736 0 12c0 3.264.014 3.668.072 4.948.059 1.28.335 2.448 1.337 3.451.996.996 2.164 1.272 3.444 1.331C8.332 23.986 8.736 24 12 24s3.668-.014 4.948-.072c1.28-.059 2.448-.335 3.451-1.337.996-.996 1.272-2.164 1.331-3.444.058-1.28.072-1.684.072-4.948s-.014-3.668-.072-4.948c-.059-1.28-.335-2.448-1.337-3.451-.996-.996-2.164-1.272-3.444-1.331C15.668.014 15.264 0 12 0z"/>
  <path d="M12 5.838a6.162 6.162 0 100 12.324 6.162 6.162 0 000-12.324zm0 10.162a3.999 3.999 0 110-7.998 3.999 3.999 0 010 7.998z"/>
  <circle cx="18.406" cy="5.595" r="1.44"/>
</svg>
