<svg role="img" viewBox="0 0 24 24" fill="currentColor" xmlns="http://www.w3.org/2000/svg">
  <title>LinkedIn</title>
  <path d="M20.447 20.452h-3.554v-5.569c0-1.327-.026-3.036-1.849-3.036-1.852 0-2.135 1.445-2.135 2.94v5.665h-3.554V9h3.414v1.561h.049c.476-.9 1.637-1.849 3.369-1.849 3.602 0 4.267 2.371 4.267 5.455v6.285zM5.337 7.433c-1.144 0-2.07-.927-2.07-2.071 0-1.146.926-2.072 2.07-2.072 1.146 0 2.071.926 2.071 2.072 0 1.144-.925 2.07-2.07 2.07zm1.778 13.019H3.559V9h3.556v11.452zM22.225 0H1.771C.792 0 0 .77 0 1.72v20.56C0 23.23.792 24 1.771 24h20.451c.978 0 1.778-.77 1.778-1.72V1.72C24 .77 23.203 0 22.225 0z"/>
</svg>
